<svg width="279" height="80" viewBox="0 0 279 80" fill="none" xmlns="http://www.w3.org/2000/svg">
<path d="M277.45 70.7739C277.45 75.0372 273.898 78.4906 269.505 78.4906H9.50532C5.11427 78.4906 1.55005 75.0372 1.55005 70.7739V9.23618C1.55005 4.9749 5.11427 1.50946 9.50532 1.50946H269.503C273.898 1.50946 277.448 4.9749 277.448 9.23618L277.45 70.7739Z" fill="black" fill-opacity="0.88"/>
<path d="M268.667 1.60253C273.451 1.60253 277.344 5.37003 277.344 10V70C277.344 74.63 273.451 78.3975 268.667 78.3975H10.3333C5.549 78.3975 1.65592 74.63 1.65592 70V10C1.65592 5.37003 5.549 1.60253 10.3333 1.60253H268.667ZM268.667 3.47455e-05H10.3333C4.65258 3.47455e-05 0 4.50253 0 10V70C0 75.4975 4.65258 80 10.3333 80H268.667C274.347 80 279 75.4975 279 70V10C279 4.50253 274.347 3.47455e-05 268.667 3.47455e-05Z" fill="#A6A6A6"/>
<path d="M62.2647 39.568C62.2048 33.122 67.7186 29.986 67.9708 29.84C64.848 25.434 60.0079 24.832 58.307 24.784C54.2419 24.37 50.2987 27.138 48.2279 27.138C46.1158 27.138 42.9269 24.824 39.49 24.892C35.0674 24.958 30.9299 27.436 28.6607 31.284C23.9776 39.13 27.4703 50.66 31.957 57.002C34.2014 60.108 36.824 63.576 40.2568 63.454C43.6151 63.32 44.8696 61.382 48.9223 61.382C52.9378 61.382 54.1158 63.454 57.6168 63.376C61.221 63.32 63.4902 60.256 65.6561 57.122C68.2498 53.562 69.2914 50.056 69.3327 49.876C69.248 49.848 62.3329 47.294 62.2647 39.568Z" fill="white"/>
<path d="M55.6514 20.612C57.4576 18.426 58.6935 15.452 58.3504 12.434C55.7361 12.546 52.4666 14.184 50.5839 16.322C48.9182 18.206 47.4302 21.294 47.8146 24.198C50.7513 24.41 53.7666 22.764 55.6514 20.612Z" fill="white"/>
<path d="M110.866 63.008H106.173L103.602 55.19H94.6656L92.2166 63.008H87.6472L96.5008 36.392H101.969L110.866 63.008ZM102.827 51.91L100.502 44.96C100.256 44.25 99.7951 42.578 99.1151 39.946H99.0325C98.7617 41.078 98.3257 42.75 97.7263 44.96L95.4427 51.91H102.827Z" fill="white"/>
<path d="M133.635 53.176C133.635 56.44 132.723 59.02 130.9 60.914C129.268 62.6 127.24 63.442 124.82 63.442C122.208 63.442 120.332 62.534 119.189 60.718H119.106V70.828H114.7V50.134C114.7 48.082 114.644 45.976 114.537 43.816H118.412L118.658 46.858H118.74C120.21 44.566 122.44 43.422 125.432 43.422C127.772 43.422 129.725 44.316 131.287 46.106C132.853 47.898 133.635 50.254 133.635 53.176ZM129.146 53.332C129.146 51.464 128.712 49.924 127.84 48.712C126.887 47.448 125.608 46.816 124.004 46.816C122.917 46.816 121.929 47.168 121.047 47.862C120.162 48.562 119.583 49.476 119.313 50.608C119.176 51.136 119.108 51.568 119.108 51.908V55.108C119.108 56.504 119.55 57.682 120.435 58.644C121.319 59.606 122.468 60.086 123.882 60.086C125.542 60.086 126.833 59.466 127.757 58.23C128.683 56.992 129.146 55.36 129.146 53.332Z" fill="white"/>
<path d="M156.444 53.176C156.444 56.44 155.533 59.02 153.708 60.914C152.078 62.6 150.05 63.442 147.63 63.442C145.018 63.442 143.141 62.534 142 60.718H141.918V70.828H137.512V50.134C137.512 48.082 137.456 45.976 137.348 43.816H141.223L141.469 46.858H141.552C143.019 44.566 145.249 43.422 148.244 43.422C150.581 43.422 152.534 44.316 154.101 46.106C155.661 47.898 156.444 50.254 156.444 53.176ZM151.956 53.332C151.956 51.464 151.52 49.924 150.647 48.712C149.695 47.448 148.42 46.816 146.814 46.816C145.725 46.816 144.739 47.168 143.854 47.862C142.97 48.562 142.393 49.476 142.122 50.608C141.988 51.136 141.918 51.568 141.918 51.908V55.108C141.918 56.504 142.36 57.682 143.24 58.644C144.125 59.604 145.274 60.086 146.692 60.086C148.351 60.086 149.643 59.466 150.567 58.23C151.493 56.992 151.956 55.36 151.956 53.332Z" fill="white"/>
<path d="M181.947 55.544C181.947 57.808 181.135 59.65 179.504 61.072C177.713 62.626 175.218 63.402 172.013 63.402C169.053 63.402 166.681 62.85 164.885 61.744L165.906 58.19C167.84 59.322 169.963 59.89 172.275 59.89C173.935 59.89 175.226 59.526 176.154 58.802C177.078 58.078 177.539 57.106 177.539 55.894C177.539 54.814 177.159 53.904 176.396 53.166C175.638 52.428 174.371 51.742 172.602 51.108C167.786 49.37 165.381 46.824 165.381 43.476C165.381 41.288 166.224 39.494 167.912 38.098C169.595 36.7 171.839 36.002 174.646 36.002C177.148 36.002 179.227 36.424 180.887 37.266L179.785 40.742C178.235 39.926 176.483 39.518 174.522 39.518C172.972 39.518 171.761 39.888 170.893 40.624C170.159 41.282 169.791 42.084 169.791 43.034C169.791 44.086 170.211 44.956 171.054 45.64C171.787 46.272 173.12 46.956 175.055 47.694C177.421 48.616 179.159 49.694 180.277 50.93C181.391 52.162 181.947 53.704 181.947 55.544Z" fill="white"/>
<path d="M196.515 47.016H191.658V56.334C191.658 58.704 192.514 59.888 194.229 59.888C195.017 59.888 195.67 59.822 196.186 59.69L196.308 62.928C195.44 63.242 194.298 63.4 192.882 63.4C191.142 63.4 189.782 62.886 188.8 61.86C187.823 60.832 187.331 59.108 187.331 56.686V47.012H184.438V43.812H187.331V40.298L191.658 39.034V43.812H196.515V47.016Z" fill="white"/>
<path d="M218.428 53.254C218.428 56.204 217.556 58.626 215.816 60.52C213.991 62.47 211.569 63.442 208.549 63.442C205.639 63.442 203.323 62.508 201.595 60.64C199.867 58.772 199.003 56.414 199.003 53.572C199.003 50.598 199.892 48.162 201.676 46.268C203.455 44.372 205.856 43.424 208.876 43.424C211.786 43.424 214.127 44.358 215.894 46.228C217.585 48.042 218.428 50.384 218.428 53.254ZM213.857 53.392C213.857 51.622 213.466 50.104 212.674 48.838C211.751 47.306 210.43 46.542 208.719 46.542C206.948 46.542 205.602 47.308 204.678 48.838C203.887 50.106 203.496 51.648 203.496 53.472C203.496 55.242 203.887 56.76 204.678 58.024C205.631 59.556 206.962 60.32 208.68 60.32C210.362 60.32 211.682 59.54 212.635 57.984C213.447 56.694 213.857 55.16 213.857 53.392Z" fill="white"/>
<path d="M232.75 47.566C232.314 47.488 231.849 47.448 231.361 47.448C229.811 47.448 228.612 48.014 227.769 49.148C227.036 50.148 226.668 51.412 226.668 52.938V63.008H222.264L222.305 49.86C222.305 47.648 222.249 45.634 222.14 43.818H225.977L226.139 47.49H226.261C226.726 46.228 227.459 45.212 228.464 44.45C229.445 43.764 230.506 43.422 231.648 43.422C232.056 43.422 232.423 43.45 232.75 43.5V47.566Z" fill="white"/>
<path d="M252.456 52.504C252.456 53.268 252.404 53.912 252.294 54.438H239.076C239.128 56.334 239.766 57.784 240.994 58.784C242.108 59.678 243.548 60.126 245.317 60.126C247.274 60.126 249.06 59.824 250.666 59.218L251.356 62.178C249.48 62.97 247.264 63.364 244.708 63.364C241.632 63.364 239.219 62.488 237.462 60.738C235.709 58.988 234.831 56.638 234.831 53.69C234.831 50.796 235.647 48.386 237.282 46.464C238.993 44.412 241.306 43.386 244.216 43.386C247.074 43.386 249.238 44.412 250.707 46.464C251.871 48.094 252.456 50.11 252.456 52.504ZM248.254 51.398C248.283 50.134 247.996 49.042 247.398 48.12C246.636 46.934 245.464 46.342 243.887 46.342C242.447 46.342 241.275 46.92 240.38 48.08C239.646 49.002 239.21 50.108 239.076 51.396H248.254V51.398Z" fill="white"/>
<path d="M93.2102 25.159C92.392 25.159 91.6647 25.0189 91.0283 24.7386C90.3958 24.4583 89.8958 24.0681 89.5283 23.5681C89.1609 23.0681 88.9658 22.4905 88.9431 21.8351H91.0795C91.0984 22.1495 91.2026 22.4242 91.392 22.659C91.5814 22.8901 91.8333 23.07 92.1477 23.1988C92.4621 23.3276 92.8143 23.392 93.2045 23.392C93.6211 23.392 93.9905 23.32 94.3124 23.1761C94.6344 23.0283 94.8863 22.8238 95.0681 22.5624C95.2499 22.3011 95.3389 21.9999 95.3352 21.659C95.3389 21.3067 95.248 20.9961 95.0624 20.7272C94.8768 20.4583 94.6079 20.248 94.2556 20.0965C93.9071 19.945 93.4867 19.8692 92.9943 19.8692H91.9658V18.2442H92.9943C93.3996 18.2442 93.7537 18.1742 94.0568 18.034C94.3636 17.8939 94.6041 17.6969 94.7783 17.4431C94.9526 17.1855 95.0378 16.8882 95.034 16.5511C95.0378 16.2215 94.9639 15.9355 94.8124 15.6931C94.6647 15.4469 94.4545 15.2556 94.1818 15.1192C93.9128 14.9829 93.5965 14.9147 93.2329 14.9147C92.8768 14.9147 92.5473 14.9791 92.2443 15.1079C91.9412 15.2367 91.6969 15.4204 91.5113 15.659C91.3257 15.8939 91.2272 16.1742 91.2158 16.4999H89.1874C89.2026 15.8484 89.3901 15.2764 89.7499 14.784C90.1136 14.2878 90.5984 13.9014 91.2045 13.6249C91.8105 13.3446 92.4905 13.2045 93.2443 13.2045C94.0208 13.2045 94.695 13.3503 95.267 13.642C95.8427 13.9298 96.2878 14.3181 96.6022 14.8067C96.9166 15.2954 97.0738 15.8351 97.0738 16.4261C97.0776 17.0814 96.8844 17.6306 96.4943 18.0738C96.1079 18.517 95.6003 18.8067 94.9715 18.9431V19.034C95.7897 19.1476 96.4166 19.4507 96.8522 19.9431C97.2916 20.4317 97.5094 21.0397 97.5056 21.767C97.5056 22.4185 97.32 23.0018 96.9488 23.517C96.5814 24.0283 96.0738 24.4298 95.4261 24.7215C94.7821 25.0132 94.0435 25.159 93.2102 25.159Z" fill="white"/>
<path d="M102.102 25.1761C101.549 25.1761 101.051 25.0776 100.608 24.8806C100.168 24.6798 99.8198 24.3844 99.5622 23.9942C99.3084 23.6041 99.1815 23.123 99.1815 22.5511C99.1815 22.0586 99.2724 21.6514 99.4543 21.3295C99.6361 21.0075 99.8842 20.7499 100.199 20.5567C100.513 20.3636 100.867 20.2177 101.261 20.1192C101.659 20.017 102.07 19.9431 102.494 19.8976C103.005 19.8446 103.42 19.7973 103.738 19.7556C104.057 19.7101 104.288 19.642 104.432 19.5511C104.579 19.4564 104.653 19.3105 104.653 19.1136V19.0795C104.653 18.6514 104.526 18.32 104.272 18.0851C104.019 17.8503 103.653 17.7329 103.176 17.7329C102.672 17.7329 102.272 17.8427 101.977 18.0624C101.685 18.2821 101.488 18.5416 101.386 18.8408L99.4656 18.5681C99.6171 18.0378 99.8671 17.5946 100.216 17.2386C100.564 16.8787 100.99 16.6098 101.494 16.4317C101.998 16.2499 102.555 16.159 103.164 16.159C103.585 16.159 104.004 16.2083 104.42 16.3067C104.837 16.4052 105.218 16.5681 105.562 16.7954C105.907 17.0189 106.183 17.3238 106.392 17.7101C106.604 18.0965 106.71 18.5795 106.71 19.159V24.9999H104.733V23.8011H104.664C104.539 24.0435 104.363 24.2708 104.136 24.4829C103.913 24.6912 103.63 24.8598 103.289 24.9886C102.952 25.1136 102.557 25.1761 102.102 25.1761ZM102.636 23.6647C103.049 23.6647 103.407 23.5833 103.71 23.4204C104.013 23.2537 104.246 23.034 104.409 22.7613C104.575 22.4886 104.659 22.1912 104.659 21.8692V20.8408C104.594 20.8939 104.485 20.9431 104.329 20.9886C104.178 21.034 104.007 21.0738 103.818 21.1079C103.629 21.142 103.441 21.1723 103.255 21.1988C103.07 21.2253 102.909 21.248 102.772 21.267C102.466 21.3086 102.191 21.3768 101.949 21.4715C101.706 21.5662 101.515 21.6988 101.375 21.8692C101.235 22.0359 101.164 22.2518 101.164 22.517C101.164 22.8958 101.303 23.1817 101.579 23.3749C101.856 23.5681 102.208 23.6647 102.636 23.6647Z" fill="white"/>
<path d="M114.663 16.2726V17.9601H110.901V24.9999H108.89V16.2726H114.663Z" fill="white"/>
<path d="M116.424 28.2727V16.2726H118.447V17.7158H118.566C118.672 17.5037 118.822 17.2783 119.015 17.0397C119.208 16.7973 119.469 16.5908 119.799 16.4204C120.129 16.2461 120.549 16.159 121.06 16.159C121.735 16.159 122.343 16.3314 122.884 16.6761C123.43 17.017 123.862 17.5226 124.18 18.1931C124.502 18.8598 124.663 19.678 124.663 20.6476C124.663 21.606 124.505 22.4204 124.191 23.0908C123.877 23.7613 123.449 24.2726 122.907 24.6249C122.365 24.9772 121.752 25.1533 121.066 25.1533C120.566 25.1533 120.151 25.07 119.822 24.9033C119.492 24.7367 119.227 24.5359 119.026 24.3011C118.829 24.0624 118.676 23.837 118.566 23.6249H118.481V28.2727H116.424ZM118.441 20.6363C118.441 21.2007 118.521 21.695 118.68 22.1192C118.843 22.5435 119.076 22.8749 119.379 23.1136C119.685 23.3484 120.057 23.4658 120.492 23.4658C120.947 23.4658 121.327 23.3446 121.634 23.1022C121.941 22.856 122.172 22.5208 122.327 22.0965C122.487 21.6685 122.566 21.1817 122.566 20.6363C122.566 20.0946 122.488 19.6136 122.333 19.1931C122.178 18.7726 121.947 18.4431 121.64 18.2045C121.333 17.9658 120.951 17.8465 120.492 17.8465C120.053 17.8465 119.68 17.962 119.373 18.1931C119.066 18.4242 118.833 18.748 118.674 19.1647C118.519 19.5814 118.441 20.0719 118.441 20.6363Z" fill="white"/>
<path d="M127.518 28.2727C127.237 28.2727 126.978 28.2499 126.739 28.2045C126.504 28.1628 126.317 28.1136 126.177 28.0567L126.654 26.4545C126.953 26.5416 127.22 26.5833 127.455 26.5795C127.69 26.5757 127.896 26.5018 128.074 26.3579C128.256 26.2177 128.41 25.9829 128.535 25.6533L128.711 25.1817L125.546 16.2726H127.728L129.739 22.8636H129.83L131.847 16.2726H134.035L130.54 26.0567C130.377 26.5189 130.161 26.9147 129.893 27.2442C129.624 27.5776 129.294 27.8314 128.904 28.0056C128.518 28.1836 128.055 28.2727 127.518 28.2727Z" fill="white"/>
<path d="M135.087 22.6079H137.127C137.146 22.9336 137.291 23.1855 137.564 23.3636C137.837 23.5416 138.191 23.6306 138.627 23.6306C139.07 23.6306 139.443 23.534 139.746 23.3408C140.053 23.1439 140.206 22.8465 140.206 22.4488C140.206 22.2139 140.148 22.0075 140.03 21.8295C139.913 21.6476 139.748 21.5075 139.536 21.409C139.324 21.3105 139.074 21.2613 138.786 21.2613H137.451V19.8011H138.786C139.214 19.8011 139.538 19.7026 139.757 19.5056C139.981 19.3086 140.093 19.0605 140.093 18.7613C140.093 18.4393 139.975 18.178 139.74 17.9772C139.509 17.7764 139.189 17.6761 138.78 17.6761C138.371 17.6761 138.03 17.7689 137.757 17.9545C137.488 18.1401 137.348 18.3787 137.337 18.6704H135.309C135.316 18.1628 135.468 17.7215 135.763 17.3465C136.062 16.9715 136.464 16.6798 136.968 16.4715C137.475 16.2632 138.047 16.159 138.684 16.159C139.365 16.159 139.954 16.2613 140.451 16.4658C140.947 16.6704 141.329 16.9564 141.598 17.3238C141.867 17.6874 142.002 18.1155 142.002 18.6079C142.002 19.0814 141.854 19.4734 141.559 19.784C141.263 20.0908 140.865 20.3105 140.365 20.4431V20.534C140.71 20.553 141.021 20.6514 141.297 20.8295C141.574 21.0037 141.793 21.2405 141.956 21.5397C142.119 21.8389 142.201 22.1855 142.201 22.5795C142.201 23.1136 142.047 23.5757 141.74 23.9658C141.434 24.3522 141.011 24.6495 140.473 24.8579C139.939 25.0662 139.327 25.1704 138.638 25.1704C137.968 25.1704 137.367 25.07 136.837 24.8692C136.31 24.6647 135.892 24.3711 135.581 23.9886C135.271 23.606 135.106 23.1458 135.087 22.6079Z" fill="white"/>
<path d="M145.915 22.2158L149.409 16.2726H151.523V24.9999H149.534V19.0511L146.051 24.9999H143.932V16.2726H145.915V22.2158Z" fill="white"/>
<path d="M152.77 17.9601V16.2726H160.406V17.9601H157.582V24.9999H155.594V17.9601H152.77Z" fill="white"/>
<path d="M165.66 25.1704C164.785 25.1704 164.029 24.9886 163.393 24.6249C162.761 24.2575 162.274 23.7386 161.933 23.0681C161.592 22.3939 161.422 21.6003 161.422 20.6874C161.422 19.7897 161.592 19.0018 161.933 18.3238C162.278 17.642 162.759 17.1117 163.376 16.7329C163.993 16.3503 164.719 16.159 165.552 16.159C166.09 16.159 166.598 16.2461 167.075 16.4204C167.556 16.5908 167.98 16.856 168.348 17.2158C168.719 17.5757 169.011 18.034 169.223 18.5908C169.435 19.1439 169.541 19.803 169.541 20.5681V21.1988H162.387V19.8124H167.569C167.565 19.4185 167.48 19.0681 167.314 18.7613C167.147 18.4507 166.914 18.2064 166.615 18.0283C166.319 17.8503 165.975 17.7613 165.581 17.7613C165.16 17.7613 164.791 17.8636 164.473 18.0681C164.154 18.2689 163.906 18.534 163.728 18.8636C163.554 19.1893 163.465 19.5473 163.461 19.9374V21.1477C163.461 21.6552 163.554 22.0908 163.74 22.4545C163.925 22.8143 164.185 23.0908 164.518 23.284C164.851 23.4734 165.242 23.5681 165.689 23.5681C165.988 23.5681 166.259 23.5264 166.501 23.4431C166.743 23.356 166.954 23.2291 167.132 23.0624C167.31 22.8958 167.444 22.6893 167.535 22.4431L169.456 22.659C169.334 23.1666 169.103 23.6098 168.762 23.9886C168.425 24.3636 167.993 24.6552 167.467 24.8636C166.94 25.0681 166.338 25.1704 165.66 25.1704Z" fill="white"/>
<path d="M175.474 24.9999V16.2726H179.138C180.172 16.2726 180.989 16.4791 181.587 16.892C182.19 17.3048 182.491 17.8806 182.491 18.6192C182.491 19.1079 182.32 19.5075 181.979 19.8181C181.642 20.1249 181.182 20.3314 180.599 20.4374C181.057 20.4753 181.458 20.5908 181.803 20.784C182.152 20.9772 182.424 21.231 182.621 21.5454C182.818 21.8598 182.917 22.2215 182.917 22.6306C182.917 23.1117 182.79 23.5302 182.536 23.8863C182.286 24.2386 181.921 24.5132 181.44 24.7101C180.962 24.9033 180.383 24.9999 179.701 24.9999H175.474ZM177.4 23.3806H179.701C180.08 23.3806 180.377 23.2916 180.593 23.1136C180.809 22.9317 180.917 22.6855 180.917 22.3749C180.917 22.0151 180.809 21.7329 180.593 21.5283C180.377 21.32 180.08 21.2158 179.701 21.2158H177.4V23.3806ZM177.4 19.8863H179.178C179.458 19.8863 179.699 19.8465 179.9 19.767C180.101 19.6836 180.254 19.5681 180.36 19.4204C180.466 19.2689 180.519 19.0889 180.519 18.8806C180.519 18.5814 180.396 18.3465 180.15 18.1761C179.907 18.0056 179.57 17.9204 179.138 17.9204H177.4V19.8863Z" fill="white"/>
</svg>
