<svg width="279" height="80" viewBox="0 0 279 80" fill="none" xmlns="http://www.w3.org/2000/svg">
<path d="M268.667 80L10.3333 80C4.65258 80 0 75.4975 0 70L0 10C0 4.5025 4.65258 4.22795e-06 10.3333 4.22795e-06L268.667 4.22795e-06C274.347 4.22795e-06 279 4.5025 279 10L279 70C279 75.4975 274.347 80 268.667 80Z" fill="black" fill-opacity="0.88"/>
<path d="M85.3921 25.8067V21.2783H86.1705C86.4319 21.07 86.6762 20.7764 86.9035 20.3976C87.1307 20.0189 87.3239 19.4999 87.483 18.8408C87.6421 18.1817 87.7519 17.3295 87.8125 16.284L88.1194 11.3636H95.5569V21.2783H96.8523V25.7954H94.8296V22.9999H87.4148V25.8067H85.3921ZM88.625 21.2783H93.5341V13.1306H90.0171L89.8353 16.284C89.786 17.0757 89.7065 17.784 89.5966 18.409C89.4868 19.034 89.3485 19.5851 89.1819 20.0624C89.0152 20.5359 88.8296 20.9412 88.625 21.2783Z" fill="white"/>
<path d="M109.079 17.1817C109.079 18.4355 108.845 19.5094 108.375 20.4033C107.909 21.2935 107.273 21.9753 106.466 22.4488C105.663 22.9223 104.752 23.159 103.733 23.159C102.714 23.159 101.801 22.9223 100.994 22.4488C100.191 21.9715 99.5548 21.2878 99.0851 20.3976C98.6191 19.5037 98.3862 18.4317 98.3862 17.1817C98.3862 15.928 98.6191 14.856 99.0851 13.9658C99.5548 13.0719 100.191 12.3882 100.994 11.9147C101.801 11.4412 102.714 11.2045 103.733 11.2045C104.752 11.2045 105.663 11.4412 106.466 11.9147C107.273 12.3882 107.909 13.0719 108.375 13.9658C108.845 14.856 109.079 15.928 109.079 17.1817ZM106.96 17.1817C106.96 16.2992 106.822 15.5548 106.545 14.9488C106.273 14.3389 105.894 13.8787 105.409 13.5681C104.924 13.2537 104.365 13.0965 103.733 13.0965C103.1 13.0965 102.541 13.2537 102.057 13.5681C101.572 13.8787 101.191 14.3389 100.915 14.9488C100.642 15.5548 100.506 16.2992 100.506 17.1817C100.506 18.0643 100.642 18.8105 100.915 19.4204C101.191 20.0264 101.572 20.4867 102.057 20.8011C102.541 21.1117 103.1 21.267 103.733 21.267C104.365 21.267 104.924 21.1117 105.409 20.8011C105.894 20.4867 106.273 20.0264 106.545 19.4204C106.822 18.8105 106.96 18.0643 106.96 17.1817Z" fill="white"/>
<path d="M121.145 15.2897H119.02C118.959 14.9412 118.847 14.6325 118.684 14.3636C118.521 14.0908 118.319 13.8598 118.076 13.6704C117.834 13.481 117.557 13.3389 117.247 13.2442C116.94 13.1458 116.609 13.0965 116.252 13.0965C115.62 13.0965 115.059 13.2556 114.571 13.5738C114.082 13.8882 113.699 14.3503 113.423 14.9601C113.146 15.5662 113.008 16.3067 113.008 17.1817C113.008 18.0719 113.146 18.8219 113.423 19.4317C113.703 20.0378 114.086 20.4961 114.571 20.8067C115.059 21.1136 115.618 21.267 116.247 21.267C116.595 21.267 116.921 21.2215 117.224 21.1306C117.531 21.0359 117.805 20.8976 118.048 20.7158C118.294 20.534 118.501 20.3105 118.667 20.0454C118.838 19.7802 118.955 19.4772 119.02 19.1363L121.145 19.1477C121.065 19.7007 120.893 20.2196 120.627 20.7045C120.366 21.1893 120.023 21.6173 119.599 21.9886C119.175 22.356 118.679 22.6439 118.11 22.8522C117.542 23.0567 116.912 23.159 116.218 23.159C115.196 23.159 114.283 22.9223 113.48 22.4488C112.677 21.9753 112.044 21.2916 111.582 20.3976C111.12 19.5037 110.889 18.4317 110.889 17.1817C110.889 15.928 111.122 14.856 111.588 13.9658C112.054 13.0719 112.688 12.3882 113.491 11.9147C114.294 11.4412 115.203 11.2045 116.218 11.2045C116.866 11.2045 117.468 11.2954 118.025 11.4772C118.582 11.659 119.078 11.9261 119.514 12.2783C119.949 12.6268 120.307 13.0548 120.588 13.5624C120.872 14.0662 121.057 14.642 121.145 15.2897Z" fill="white"/>
<path d="M122.676 13.1306V11.3636H131.96V13.1306H128.363V22.9999H126.272V13.1306H122.676Z" fill="white"/>
<path d="M134.901 23.159V21.3863H135.566C135.865 21.3863 136.111 21.3427 136.305 21.2556C136.498 21.1685 136.653 21.0435 136.77 20.8806C136.892 20.7177 136.992 20.5283 137.072 20.3124L137.225 19.9204L133.066 11.3636H135.27L138.168 17.5908L140.674 11.3636H142.844L138.833 20.8522C138.647 21.2613 138.433 21.642 138.191 21.9942C137.949 22.3427 137.632 22.6249 137.242 22.8408C136.856 23.053 136.352 23.159 135.731 23.159H134.901Z" fill="white"/>
<path d="M153.952 11.3636V22.9999H151.861V13.1136H146.77V22.9999H144.679V11.3636H153.952Z" fill="white"/>
<path d="M156.585 22.9999V11.3636H158.693V16.2897H164.085V11.3636H166.199V22.9999H164.085V18.0567H158.693V22.9999H156.585Z" fill="white"/>
<path d="M179.001 17.1817C179.001 18.4355 178.767 19.5094 178.297 20.4033C177.831 21.2935 177.195 21.9753 176.388 22.4488C175.585 22.9223 174.674 23.159 173.655 23.159C172.636 23.159 171.723 22.9223 170.916 22.4488C170.113 21.9715 169.477 21.2878 169.007 20.3976C168.541 19.5037 168.308 18.4317 168.308 17.1817C168.308 15.928 168.541 14.856 169.007 13.9658C169.477 13.0719 170.113 12.3882 170.916 11.9147C171.723 11.4412 172.636 11.2045 173.655 11.2045C174.674 11.2045 175.585 11.4412 176.388 11.9147C177.195 12.3882 177.831 13.0719 178.297 13.9658C178.767 14.856 179.001 15.928 179.001 17.1817ZM176.882 17.1817C176.882 16.2992 176.744 15.5548 176.467 14.9488C176.195 14.3389 175.816 13.8787 175.331 13.5681C174.846 13.2537 174.287 13.0965 173.655 13.0965C173.022 13.0965 172.463 13.2537 171.979 13.5681C171.494 13.8787 171.113 14.3389 170.837 14.9488C170.564 15.5548 170.428 16.2992 170.428 17.1817C170.428 18.0643 170.564 18.8105 170.837 19.4204C171.113 20.0264 171.494 20.4867 171.979 20.8011C172.463 21.1117 173.022 21.267 173.655 21.267C174.287 21.267 174.846 21.1117 175.331 20.8011C175.816 20.4867 176.195 20.0264 176.467 19.4204C176.744 18.8105 176.882 18.0643 176.882 17.1817Z" fill="white"/>
<path d="M185.187 22.9999V11.3636H189.642C190.482 11.3636 191.181 11.4961 191.738 11.7613C192.299 12.0226 192.717 12.3806 192.994 12.8351C193.274 13.2897 193.414 13.8048 193.414 14.3806C193.414 14.8541 193.323 15.2594 193.142 15.5965C192.96 15.9298 192.715 16.2007 192.409 16.409C192.102 16.6173 191.759 16.767 191.38 16.8579V16.9715C191.793 16.9942 192.189 17.1211 192.568 17.3522C192.95 17.5795 193.263 17.9014 193.505 18.3181C193.748 18.7348 193.869 19.2386 193.869 19.8295C193.869 20.4317 193.723 20.9734 193.431 21.4545C193.14 21.9317 192.7 22.3086 192.113 22.5851C191.526 22.8617 190.787 22.9999 189.897 22.9999H185.187ZM187.295 21.2386H189.562C190.327 21.2386 190.878 21.0927 191.215 20.8011C191.556 20.5056 191.727 20.1268 191.727 19.6647C191.727 19.32 191.642 19.0094 191.471 18.7329C191.301 18.4526 191.058 18.2329 190.744 18.0738C190.429 17.9109 190.054 17.8295 189.619 17.8295H187.295V21.2386ZM187.295 16.3124H189.38C189.744 16.3124 190.072 16.2461 190.363 16.1136C190.655 15.9772 190.884 15.7859 191.051 15.5397C191.221 15.2897 191.306 14.9942 191.306 14.6533C191.306 14.2026 191.147 13.8314 190.829 13.5397C190.515 13.248 190.047 13.1022 189.426 13.1022H187.295V16.3124Z" fill="white"/>
<path d="M268.667 1.6025C273.451 1.6025 277.344 5.37 277.344 10L277.344 70C277.344 74.63 273.451 78.3975 268.667 78.3975L10.3333 78.3975C5.549 78.3975 1.65592 74.63 1.65592 70L1.65592 10C1.65592 5.37 5.549 1.6025 10.3333 1.6025L268.667 1.6025ZM268.667 4.22795e-06L10.3333 4.22795e-06C4.65258 4.22795e-06 0 4.5025 0 10L0 70C0 75.4975 4.65258 80 10.3333 80L268.667 80C274.347 80 279 75.4975 279 70L279 10C279 4.5025 274.347 4.22795e-06 268.667 4.22795e-06Z" fill="#A6A6A6"/>
<path d="M140.812 43.505C135.958 43.505 131.993 47.08 131.993 52.0125C131.993 56.905 135.958 60.5175 140.812 60.5175C145.677 60.5175 149.642 56.905 149.642 52.0125C149.642 47.08 145.677 43.505 140.812 43.505ZM140.812 57.1675C138.149 57.1675 135.857 55.04 135.857 52.0125C135.857 48.945 138.149 46.855 140.812 46.855C143.476 46.855 145.777 48.945 145.777 52.0125C145.777 55.04 143.476 57.1675 140.812 57.1675ZM121.569 43.505C116.705 43.505 112.749 47.08 112.749 52.0125C112.749 56.905 116.705 60.5175 121.569 60.5175C126.431 60.5175 130.388 56.905 130.388 52.0125C130.388 47.08 126.431 43.505 121.569 43.505ZM121.569 57.1675C118.903 57.1675 116.604 55.04 116.604 52.0125C116.604 48.945 118.903 46.855 121.569 46.855C124.232 46.855 126.524 48.945 126.524 52.0125C126.524 55.04 124.232 57.1675 121.569 57.1675ZM98.6703 46.1125V49.7275L107.591 49.7275C107.33 51.7475 106.632 53.2325 105.563 54.2675C104.261 55.5175 102.233 56.905 98.6703 56.905C93.1807 56.905 88.8821 52.6175 88.8821 47.305C88.8821 41.9925 93.1807 37.705 98.6703 37.705C101.639 37.705 103.798 38.8275 105.392 40.2825L108.025 37.735C105.795 35.675 102.829 34.0925 98.6703 34.0925C91.1425 34.0925 84.8159 40.02 84.8159 47.305C84.8159 54.59 91.1425 60.5175 98.6703 60.5175C102.739 60.5175 105.795 59.2275 108.198 56.8075C110.66 54.425 111.427 51.075 111.427 48.37C111.427 47.53 111.354 46.7575 111.225 46.1125L98.6703 46.1125ZM192.306 48.915C191.58 47.0125 189.34 43.505 184.778 43.505C180.257 43.505 176.493 46.9525 176.493 52.0125C176.493 56.7775 180.218 60.5175 185.212 60.5175C189.25 60.5175 191.58 58.135 192.538 56.7475L189.542 54.815C188.542 56.23 187.18 57.1675 185.212 57.1675C183.256 57.1675 181.854 56.3 180.955 54.59L192.711 49.8825L192.306 48.915ZM180.319 51.7475C180.218 48.4675 182.952 46.7875 184.91 46.7875C186.444 46.7875 187.746 47.53 188.18 48.5925L180.319 51.7475ZM170.763 60L174.628 60L174.628 35L170.763 35L170.763 60ZM164.434 45.4H164.305C163.437 44.405 161.781 43.505 159.683 43.505C155.281 43.505 151.257 47.245 151.257 52.04C151.257 56.8075 155.281 60.5175 159.683 60.5175C161.781 60.5175 163.437 59.61 164.305 58.585H164.434V59.805C164.434 63.0575 162.639 64.805 159.743 64.805C157.382 64.805 155.917 63.155 155.312 61.7675L151.952 63.125C152.92 65.38 155.486 68.155 159.743 68.155C164.274 68.155 168.097 65.575 168.097 59.2975L168.097 44.0225H164.434V45.4ZM160.014 57.1675C157.351 57.1675 155.121 55.01 155.121 52.04C155.121 49.0425 157.351 46.855 160.014 46.855C162.639 46.855 164.708 49.0425 164.708 52.04C164.708 55.01 162.639 57.1675 160.014 57.1675ZM210.399 35L201.156 35L201.156 60L205.011 60L205.011 50.5275L210.399 50.5275C214.68 50.5275 218.878 47.53 218.878 42.7625C218.878 37.9975 214.67 35 210.399 35ZM210.5 47.05L205.011 47.05L205.011 38.4775L210.5 38.4775C213.378 38.4775 215.021 40.79 215.021 42.7625C215.021 44.6975 213.378 47.05 210.5 47.05ZM234.326 43.4575C231.541 43.4575 228.646 44.6475 227.455 47.285L230.875 48.6725C231.611 47.285 232.965 46.835 234.396 46.835C236.396 46.835 238.423 47.9975 238.454 50.05V50.3125C237.757 49.9225 236.264 49.345 234.427 49.345C230.743 49.345 226.99 51.3075 226.99 54.97C226.99 58.32 230.007 60.4775 233.399 60.4775C235.993 60.4775 237.424 59.345 238.323 58.0275H238.454L238.454 59.96L242.177 59.96L242.177 50.37C242.177 45.9375 238.757 43.4575 234.326 43.4575ZM233.861 57.1575C232.601 57.1575 230.844 56.5525 230.844 55.04C230.844 53.105 233.035 52.3625 234.931 52.3625C236.628 52.3625 237.424 52.725 238.454 53.2025C238.152 55.5175 236.093 57.1575 233.861 57.1575ZM255.74 44.005L251.309 54.8425H251.177L246.597 44.005H242.441L249.323 59.15L245.396 67.5775H249.423L260.028 44.005L255.74 44.005ZM220.996 60L224.861 60L224.861 35L220.996 35L220.996 60Z" fill="white"/>
<path d="M21.5656 15.0775C20.9585 15.6925 20.6072 16.65 20.6072 17.89L20.6072 62.12C20.6072 63.36 20.9585 64.3175 21.5656 64.9325L21.7154 65.0675L47.3266 40.2925V39.7075L21.7154 14.9325L21.5656 15.0775Z" fill="url(#paint0_linear_11_715)"/>
<path d="M55.8542 48.555L47.3267 40.2925V39.7075L55.8646 31.445L56.0557 31.5525L66.1669 37.12C69.0525 38.7 69.0525 41.3 66.1669 42.89L56.0557 48.4475L55.8542 48.555Z" fill="url(#paint1_linear_11_715)"/>
<path d="M56.0558 48.4475L47.3267 40L21.5657 64.9325C22.5241 65.9075 24.087 66.025 25.8643 65.05L56.0558 48.4475Z" fill="url(#paint2_linear_11_715)"/>
<path d="M56.0558 31.5525L25.8643 14.95C24.087 13.985 22.5241 14.1025 21.5657 15.0775L47.3267 40L56.0558 31.5525Z" fill="url(#paint3_linear_11_715)"/>
<defs>
<linearGradient id="paint0_linear_11_715" x1="45.0526" y1="62.5806" x2="11.5059" y2="27.9156" gradientUnits="userSpaceOnUse">
<stop stop-color="#00A0FF"/>
<stop offset="0.0066" stop-color="#00A1FF"/>
<stop offset="0.2601" stop-color="#00BEFF"/>
<stop offset="0.5122" stop-color="#00D2FF"/>
<stop offset="0.7604" stop-color="#00DFFF"/>
<stop offset="1" stop-color="#00E3FF"/>
</linearGradient>
<linearGradient id="paint1_linear_11_715" x1="69.9244" y1="39.9972" x2="19.9175" y2="39.9972" gradientUnits="userSpaceOnUse">
<stop stop-color="#FFE000"/>
<stop offset="0.4087" stop-color="#FFBD00"/>
<stop offset="0.7754" stop-color="#FFA500"/>
<stop offset="1" stop-color="#FF9C00"/>
</linearGradient>
<linearGradient id="paint2_linear_11_715" x1="51.3091" y1="35.4078" x2="5.817" y2="-11.6007" gradientUnits="userSpaceOnUse">
<stop stop-color="#FF3A44"/>
<stop offset="1" stop-color="#C31162"/>
</linearGradient>
<linearGradient id="paint3_linear_11_715" x1="15.0811" y1="79.6476" x2="35.3954" y2="58.6564" gradientUnits="userSpaceOnUse">
<stop stop-color="#32A071"/>
<stop offset="0.0685" stop-color="#2DA771"/>
<stop offset="0.4762" stop-color="#15CF74"/>
<stop offset="0.8009" stop-color="#06E775"/>
<stop offset="1" stop-color="#00F076"/>
</linearGradient>
</defs>
</svg>
