<svg width="823" height="542" viewBox="0 0 823 542" fill="none" xmlns="http://www.w3.org/2000/svg">
<g clip-path="url(#clip0_11_538)">
<path fill-rule="evenodd" clip-rule="evenodd" d="M387.204 18.9329C345.514 34.5797 305.874 68.1042 274.675 99.3375C209.654 164.427 199.977 178.084 119.763 232.712C73.0398 264.548 36.1733 291.47 18.0264 327.497C-32.9778 428.644 27.763 537.9 155.062 537.9C160.247 537.9 672.52 537.9 672.52 537.9C672.52 537.9 733.381 539.287 777.814 485.231C928.324 301.992 678.639 -90.474 387.204 18.9329Z" fill="#E9EBFD"/>
<path d="M156.388 249.293C159.041 253.786 161.634 258.217 164.196 262.619C160.458 246.972 161.302 224.753 183.82 203.83C191.718 238.109 194.822 253.303 174.897 281.19C177.309 285.411 179.69 289.601 182.011 293.762C182.765 277.723 189.608 249.565 226.534 238.078C219.028 271.633 215.29 286.737 187.106 302.897C193.315 314.112 199.224 324.935 204.77 335.396C203.625 315.8 208.478 282.275 249.956 263.433C245.947 305.278 243.717 323.91 211.372 347.877C215.592 355.957 219.631 363.795 223.46 371.363C225.66 354.54 237.175 317.609 295.082 304.525C278.744 343.355 271.057 360.359 226.956 378.327C235.638 395.692 243.264 411.61 249.896 425.961L245.163 432.382C239.798 420.654 233.709 407.842 226.926 393.974C186.985 420.232 168.627 416.916 127.329 408.294C171.822 367.262 209.322 379.985 223.851 387.703C220.505 380.98 217.009 374.016 213.331 366.84C173.269 381.251 156.72 372.599 119.16 351.646C164.196 324.633 197.626 348.691 210.076 360.479C204.016 348.721 197.505 336.391 190.512 323.518C160.79 337.959 146.26 332.502 114.126 319.508C144.934 295.329 172.305 306.273 185.749 314.805C182.885 309.62 179.961 304.313 176.977 298.947C142.13 299.671 131.429 288.546 107.555 262.378C135.227 256.227 153.344 265.875 164.437 276.788C159.674 268.498 154.731 260.056 149.636 251.434C137.277 243.535 112.317 221.889 124.194 181.099C147.827 205.79 158.378 217.276 156.388 249.293Z" fill="#C4C3FA"/>
<path d="M677.915 255.142C675.594 259.061 673.333 262.95 671.073 266.779C674.328 253.092 673.605 233.707 653.921 215.437C647.017 245.404 644.304 258.639 661.728 283.029C659.618 286.737 657.568 290.385 655.518 294.003C654.855 280.014 648.856 255.414 616.602 245.374C623.143 274.678 626.429 287.883 651.057 301.992C645.631 311.79 640.476 321.257 635.623 330.391C636.648 313.267 632.397 283.994 596.164 267.533C599.661 304.072 601.62 320.382 629.896 341.305C626.188 348.36 622.691 355.203 619.345 361.836C617.416 347.154 607.348 314.865 556.765 303.439C571.054 337.386 577.746 352.219 616.3 367.896C608.704 383.06 602.072 396.958 596.254 409.5L600.414 415.107C605.117 404.857 610.422 393.672 616.331 381.553C651.208 404.495 667.244 401.601 703.357 394.064C664.501 358.218 631.734 369.343 619.044 376.066C621.968 370.187 625.012 364.097 628.238 357.826C663.235 370.428 677.674 362.861 710.501 344.561C671.163 320.955 641.953 341.998 631.071 352.279C636.377 341.998 642.074 331.236 648.163 319.99C674.147 332.622 686.838 327.829 714.902 316.493C687.984 295.36 664.079 304.916 652.323 312.363C654.825 307.811 657.387 303.198 660.01 298.525C690.455 299.158 699.8 289.42 720.66 266.598C696.484 261.232 680.658 269.643 670.982 279.2C675.142 271.965 679.453 264.578 683.914 257.041C694.706 250.138 716.5 231.235 706.13 195.6C685.391 217.126 676.167 227.165 677.915 255.142Z" fill="#C4C3FA"/>
<path fill-rule="evenodd" clip-rule="evenodd" d="M135.71 354.63H318.083C322.996 354.63 327.005 358.64 327.005 363.554V396.988C327.005 401.902 322.996 405.912 318.083 405.912H135.71C130.796 405.912 126.787 401.902 126.787 396.988V363.554C126.787 358.64 130.796 354.63 135.71 354.63Z" fill="#0046AF"/>
<path fill-rule="evenodd" clip-rule="evenodd" d="M138.965 416.012H314.827C321.519 416.012 327.005 421.499 327.005 428.191V527.8C327.005 534.493 321.519 539.98 314.827 539.98H138.965C132.273 539.98 126.787 534.493 126.787 527.8V428.191C126.787 421.499 132.273 416.012 138.965 416.012Z" fill="#3A9FE7"/>
<path d="M314.677 405.52H139.086V417.308H314.677V405.52Z" fill="#3A4BE7"/>
<path fill-rule="evenodd" clip-rule="evenodd" d="M138.965 416.012H296.318C303.011 416.012 308.497 421.499 308.497 428.191V527.8C308.497 534.493 303.011 539.98 296.318 539.98H138.965C132.273 539.98 126.787 534.493 126.787 527.8V428.191C126.787 421.499 132.273 416.012 138.965 416.012Z" fill="#8591FF"/>
<path d="M262.557 438.14H126.787V517.851H262.557V438.14Z" fill="#E1EAF9"/>
<path fill-rule="evenodd" clip-rule="evenodd" d="M158.016 362.65C160.066 362.65 161.754 364.338 161.754 366.388V386.859C161.754 388.909 160.066 390.597 158.016 390.597C155.967 390.597 154.279 388.909 154.279 386.859V366.388C154.279 364.338 155.967 362.65 158.016 362.65ZM174.596 362.65C176.646 362.65 178.334 364.338 178.334 366.388V386.859C178.334 388.909 176.646 390.597 174.596 390.597C172.546 390.597 170.858 388.909 170.858 386.859V366.388C170.888 364.338 172.546 362.65 174.596 362.65ZM191.205 362.65C193.255 362.65 194.943 364.338 194.943 366.388V386.859C194.943 388.909 193.255 390.597 191.205 390.597C189.156 390.597 187.467 388.909 187.467 386.859V366.388C187.467 364.338 189.156 362.65 191.205 362.65ZM207.785 362.65C209.835 362.65 211.523 364.338 211.523 366.388V386.859C211.523 388.909 209.835 390.597 207.785 390.597C205.735 390.597 204.047 388.909 204.047 386.859V366.388C204.047 364.338 205.735 362.65 207.785 362.65ZM224.394 362.65C226.444 362.65 228.132 364.338 228.132 366.388V386.859C228.132 388.909 226.444 390.597 224.394 390.597C222.344 390.597 220.656 388.909 220.656 386.859V366.388C220.656 364.338 222.314 362.65 224.394 362.65ZM240.974 362.65C243.023 362.65 244.712 364.338 244.712 366.388V386.859C244.712 388.909 243.023 390.597 240.974 390.597C238.924 390.597 237.236 388.909 237.236 386.859V366.388C237.236 364.338 238.924 362.65 240.974 362.65ZM257.553 362.65C259.603 362.65 261.291 364.338 261.291 366.388V386.859C261.291 388.909 259.603 390.597 257.553 390.597C255.503 390.597 253.815 388.909 253.815 386.859V366.388C253.815 364.338 255.503 362.65 257.553 362.65ZM274.163 362.65C276.212 362.65 277.9 364.338 277.9 366.388V386.859C277.9 388.909 276.212 390.597 274.163 390.597C272.113 390.597 270.425 388.909 270.425 386.859V366.388C270.425 364.338 272.113 362.65 274.163 362.65ZM290.742 362.65C292.792 362.65 294.48 364.338 294.48 366.388V386.859C294.48 388.909 292.792 390.597 290.742 390.597C288.692 390.597 287.004 388.909 287.004 386.859V366.388C287.004 364.338 288.692 362.65 290.742 362.65ZM141.437 362.65C143.487 362.65 145.175 364.338 145.175 366.388V386.859C145.175 388.909 143.487 390.597 141.437 390.597C139.387 390.597 137.699 388.909 137.699 386.859V366.388C137.699 364.338 139.387 362.65 141.437 362.65Z" fill="#002480"/>
<path fill-rule="evenodd" clip-rule="evenodd" d="M436.128 175.069H635.141C638.547 175.069 641.32 177.843 641.32 181.25V216.342C641.32 219.748 638.547 222.522 635.141 222.522H436.128C432.722 222.522 429.948 219.748 429.948 216.342V181.25C429.948 177.843 432.752 175.069 436.128 175.069Z" fill="#B1BFF2"/>
<path fill-rule="evenodd" clip-rule="evenodd" d="M441.855 222.522H629.444V514.264C629.444 528.373 617.898 539.89 603.821 539.89H468.141C453.702 539.89 441.886 528.072 441.886 513.631V222.522H441.855Z" fill="#E8CA2B"/>
<path fill-rule="evenodd" clip-rule="evenodd" d="M441.855 222.522H595.682V514.264C595.682 528.373 584.137 539.89 570.059 539.89H468.141C453.702 539.89 441.886 528.072 441.886 513.631V222.522H441.855Z" fill="#FDDD35"/>
<path d="M629.443 292.254H487.795V454.239H629.443V292.254Z" fill="#BBCCEA"/>
<path d="M595.652 292.254H440.77V454.239H595.652V292.254Z" fill="#E1EAF9"/>
<path fill-rule="evenodd" clip-rule="evenodd" d="M569.607 261.594C575.485 261.594 580.278 266.387 580.278 272.266V424.333C580.278 430.211 575.485 435.005 569.607 435.005C563.729 435.005 558.936 430.211 558.936 424.333V272.266C558.936 266.387 563.729 261.594 569.607 261.594Z" fill="#E8CA2B"/>
<path fill-rule="evenodd" clip-rule="evenodd" d="M580.278 292.254V424.332C580.278 430.211 575.485 435.005 569.607 435.005C563.729 435.005 558.936 430.211 558.936 424.332V292.254H580.278Z" fill="white"/>
<path fill-rule="evenodd" clip-rule="evenodd" d="M507.63 175.069H488.639H475.285H436.158C432.752 175.069 429.979 177.843 429.979 181.25V208.684H441.584V181.852C441.584 179.983 443.121 178.446 444.99 178.446C446.859 178.446 448.397 179.983 448.397 181.852V208.684H459.068V181.852C459.068 179.983 460.605 178.446 462.474 178.446C464.343 178.446 465.88 179.983 465.88 181.852V208.684H469.076H476.551V181.852V181.762V181.672V181.581V181.491C477.004 177.451 482.882 177.391 483.334 181.491V181.581V181.672V181.762V181.852V208.684H485.384H494.005V181.852V181.762V181.672V181.581V181.491C494.457 177.421 500.365 177.451 500.788 181.491V181.581V181.672V181.762V181.852V208.684H507.54H511.459V181.852C511.459 177.27 517.819 177.421 518.271 181.491V181.581V181.672V181.762V181.852V208.684H520.321H528.942V181.852V181.762V181.672V181.581V181.491C529.394 177.451 535.273 177.391 535.725 181.491V181.581V181.672V181.762V181.852V208.684H542.477H546.396V181.852V181.762V181.672V181.581V181.491C546.848 177.421 552.756 177.451 553.178 181.491V181.581V181.672V181.762V181.852V208.684H561.528H563.849V181.852C563.849 179.983 565.387 178.446 567.256 178.446C569.125 178.446 570.662 179.983 570.662 181.852V208.684H581.333V181.852C581.333 179.983 582.87 178.446 584.739 178.446C586.608 178.446 588.146 179.983 588.146 181.852V208.684H601.62V175.069H561.498H542.387H523.396H507.63Z" fill="white"/>
<path fill-rule="evenodd" clip-rule="evenodd" d="M439.715 222.522H631.132C635.352 222.522 638.818 225.989 638.818 230.21C638.818 234.431 635.352 237.898 631.132 237.898H439.715C435.495 237.898 432.028 234.431 432.028 230.21C432.028 225.989 435.495 222.522 439.715 222.522Z" fill="#FDDD35"/>
<path d="M629.444 237.928H441.855V248.118H629.444V237.928Z" fill="#E8CA2B"/>
<path d="M719.364 347.696H643.34V367.684H719.364V347.696Z" fill="#1C24E4"/>
<path d="M744.293 365.333H617.958V539.528H744.293V365.333Z" fill="url(#paint0_linear_11_538)"/>
<path d="M744.384 365.152H646.143V539.528H744.384V365.152Z" fill="url(#paint1_linear_11_538)"/>
<path d="M719.364 347.696H643.34V354.54H719.364V347.696Z" fill="#022FA0"/>
<path d="M727.232 307.841H635.502V338.26H727.232V307.841Z" fill="url(#paint2_linear_11_538)"/>
<path d="M744.263 404.465H618.411V515.379H744.263V404.465Z" fill="#B1C8F2"/>
<path fill-rule="evenodd" clip-rule="evenodd" d="M744.685 404.465H646.234C646.204 431.93 646.264 497.562 646.294 515.379H744.685V404.465Z" fill="#E1EAF9"/>
<path fill-rule="evenodd" clip-rule="evenodd" d="M722.71 381.281C717.615 381.281 713.456 385.442 713.456 390.537V466.992C713.456 472.087 717.615 476.247 722.71 476.247C727.804 476.247 731.964 472.087 731.964 466.992V390.567C731.994 385.442 727.804 381.281 722.71 381.281Z" fill="#8B89FB"/>
<path fill-rule="evenodd" clip-rule="evenodd" d="M713.456 404.465V466.992C713.456 472.087 717.615 476.247 722.71 476.247C727.804 476.247 731.964 472.087 731.964 466.992V404.465H713.456Z" fill="white"/>
<path d="M744.685 488.849H646.294V504.797H744.685V488.849Z" fill="#B2B1F2"/>
<path d="M706.643 423.88H656.453V474.077H706.643V423.88Z" fill="url(#paint3_linear_11_538)"/>
<path fill-rule="evenodd" clip-rule="evenodd" d="M685.632 434.703H677.463V444.893H667.274V453.064H677.463V463.254H685.632V453.064H695.821V444.893H685.632V434.703Z" fill="#E1EAF9"/>
<path fill-rule="evenodd" clip-rule="evenodd" d="M656.151 313.629C655.096 313.629 654.222 314.503 654.222 315.559V338.29H658.081V315.559C658.05 314.503 657.206 313.629 656.151 313.629ZM666.22 313.629C665.165 313.629 664.29 314.503 664.29 315.559V338.29H668.149V315.559C668.149 314.503 667.275 313.629 666.22 313.629ZM676.318 313.629C675.263 313.629 674.389 314.503 674.389 315.559V338.29H678.247V315.559C678.217 314.503 677.373 313.629 676.318 313.629ZM686.386 313.629C685.331 313.629 684.457 314.503 684.457 315.559V338.29H688.315V315.559C688.315 314.503 687.441 313.629 686.386 313.629ZM696.484 313.629C695.429 313.629 694.555 314.503 694.555 315.559V338.29H698.414V315.559C698.414 314.503 697.539 313.629 696.484 313.629ZM706.553 313.629C705.498 313.629 704.623 314.503 704.623 315.559V338.29H708.482V315.559C708.482 314.503 707.608 313.629 706.553 313.629ZM716.651 313.629C715.596 313.629 714.722 314.503 714.722 315.559V338.29H718.58V315.559C718.58 314.503 717.706 313.629 716.651 313.629ZM646.053 313.629C644.998 313.629 644.124 314.503 644.124 315.559V338.29H647.982V315.559C647.982 314.503 647.108 313.629 646.053 313.629Z" fill="#EBE205"/>
<path fill-rule="evenodd" clip-rule="evenodd" d="M727.322 347.696H635.382C634.176 347.696 633.211 346.49 633.211 345.043V339.345C633.211 337.868 634.206 336.692 635.382 336.692H727.322C728.528 336.692 729.523 337.898 729.523 339.345V345.043C729.492 346.49 728.528 347.696 727.322 347.696Z" fill="#FFDB1F"/>
<path fill-rule="evenodd" clip-rule="evenodd" d="M646.113 437.176V519.841C646.113 530.906 637.04 539.98 625.977 539.98H443.393C432.33 539.98 423.256 530.906 423.256 519.841V437.176C423.256 426.111 432.33 417.037 443.393 417.037H625.977C637.07 417.037 646.113 426.081 646.113 437.176Z" fill="#F4F8FF"/>
<path fill-rule="evenodd" clip-rule="evenodd" d="M627.183 466.389C622.57 470.79 615.245 470.64 610.844 466.027L590.135 444.351C585.734 439.738 585.885 432.412 590.497 428.011C595.109 423.609 602.434 423.76 606.835 428.372L627.544 450.049C631.975 454.661 631.795 461.987 627.183 466.389Z" fill="#E2E2E2"/>
<path d="M624.439 463.525C621.395 466.419 616.572 466.329 613.678 463.284L592.969 441.607C590.075 438.562 590.165 433.739 593.21 430.844C596.254 427.95 601.077 428.041 603.971 431.086L624.68 452.762C627.604 455.807 627.484 460.631 624.439 463.525Z" fill="#FDDD35"/>
<path d="M624.439 463.525C627.484 460.631 627.574 455.807 624.681 452.762L614.401 441.999L603.399 452.521L613.678 463.284C616.602 466.329 621.425 466.419 624.439 463.525Z" fill="#F64D11"/>
<path d="M592.999 441.607L603.429 452.521L608.885 447.305L593.21 430.875C590.196 433.799 590.105 438.593 592.999 441.607Z" fill="#FDDD35"/>
<path d="M613.678 463.284C616.572 466.298 621.365 466.419 624.409 463.555L608.885 447.305L603.429 452.521L613.678 463.284Z" fill="#F64D11"/>
<path fill-rule="evenodd" clip-rule="evenodd" d="M612.683 443.688L623.415 454.933C624.259 455.807 624.228 457.194 623.354 458.038C622.48 458.882 621.094 458.852 620.249 457.978L609.518 446.732L612.683 443.688Z" fill="#FFA686"/>
<path fill-rule="evenodd" clip-rule="evenodd" d="M608.312 439.075L612.713 443.657L609.548 446.672L605.147 442.09C604.303 441.215 604.333 439.829 605.207 438.984C606.082 438.17 607.468 438.201 608.312 439.075Z" fill="#FFEDBE"/>
<path fill-rule="evenodd" clip-rule="evenodd" d="M627.816 478.508C627.816 479.865 626.7 480.981 625.344 480.981H440.921C439.564 480.981 438.449 479.865 438.449 478.508C438.449 477.152 439.564 476.036 440.921 476.036H625.344C626.7 476.006 627.816 477.122 627.816 478.508Z" fill="#E2E2E2"/>
<path fill-rule="evenodd" clip-rule="evenodd" d="M591.914 466.389C587.302 470.79 579.977 470.64 575.576 466.027L554.866 444.351C550.465 439.738 550.616 432.412 555.228 428.011C559.84 423.609 567.165 423.76 571.566 428.372L592.275 450.049C596.677 454.661 596.526 461.987 591.914 466.389Z" fill="#E2E2E2"/>
<path d="M589.171 463.525C586.126 466.419 581.303 466.329 578.409 463.284L557.7 441.607C554.806 438.562 554.896 433.739 557.941 430.844C560.986 427.95 565.809 428.041 568.703 431.086L589.412 452.762C592.306 455.807 592.215 460.631 589.171 463.525Z" fill="#FDDD35"/>
<path d="M589.171 463.525C592.215 460.631 592.306 455.807 589.412 452.762L579.133 441.999L568.13 452.521L578.409 463.284C581.303 466.329 586.126 466.419 589.171 463.525Z" fill="#F64D11"/>
<path d="M557.7 441.607L568.13 452.521L573.586 447.305L557.911 430.875C554.927 433.799 554.806 438.593 557.7 441.607Z" fill="#FDDD35"/>
<path d="M578.409 463.284C581.303 466.298 586.096 466.419 589.141 463.555L573.616 447.305L568.16 452.521L578.409 463.284Z" fill="#F64D11"/>
<path fill-rule="evenodd" clip-rule="evenodd" d="M577.414 443.688L588.146 454.933C588.99 455.807 588.959 457.194 588.085 458.038C587.211 458.882 585.824 458.852 584.98 457.978L574.249 446.732L577.414 443.688Z" fill="#FFA686"/>
<path fill-rule="evenodd" clip-rule="evenodd" d="M573.013 439.075L577.414 443.657L574.249 446.672L569.848 442.09C569.004 441.215 569.034 439.829 569.908 438.984C570.783 438.17 572.199 438.201 573.013 439.075Z" fill="#FFEDBE"/>
<path fill-rule="evenodd" clip-rule="evenodd" d="M556.615 466.389C552.003 470.79 544.678 470.64 540.276 466.027L519.567 444.351C515.166 439.738 515.317 432.412 519.929 428.011C524.541 423.609 531.866 423.76 536.267 428.372L556.976 450.049C561.408 454.661 561.227 461.987 556.615 466.389Z" fill="#E2E2E2"/>
<path d="M553.872 463.525C550.827 466.419 546.004 466.329 543.11 463.284L522.401 441.607C519.507 438.562 519.598 433.739 522.642 430.844C525.687 427.95 530.51 428.041 533.404 431.086L554.113 452.762C557.037 455.807 556.916 460.631 553.872 463.525Z" fill="#FDDD35"/>
<path d="M553.872 463.525C556.916 460.631 557.007 455.807 554.113 452.762L543.833 441.999L532.831 452.521L543.11 463.284C546.034 466.329 550.857 466.419 553.872 463.525Z" fill="#F64D11"/>
<path d="M522.431 441.607L532.861 452.521L538.317 447.305L522.642 430.875C519.628 433.799 519.537 438.593 522.431 441.607Z" fill="#FDDD35"/>
<path d="M543.14 463.284C546.034 466.298 550.827 466.419 553.872 463.555L538.347 447.305L532.891 452.521L543.14 463.284Z" fill="#F64D11"/>
<path fill-rule="evenodd" clip-rule="evenodd" d="M542.115 443.688L552.847 454.933C553.691 455.807 553.661 457.194 552.786 458.038C551.912 458.882 550.526 458.852 549.682 457.978L538.95 446.732L542.115 443.688Z" fill="#FFA686"/>
<path fill-rule="evenodd" clip-rule="evenodd" d="M537.744 439.075L542.145 443.657L538.98 446.672L534.579 442.09C533.735 441.215 533.765 439.829 534.64 438.984C535.514 438.17 536.9 438.201 537.744 439.075Z" fill="#FFEDBE"/>
<path fill-rule="evenodd" clip-rule="evenodd" d="M521.346 466.389C516.734 470.79 509.409 470.64 505.008 466.027L484.298 444.351C479.897 439.738 480.048 432.412 484.66 428.011C489.272 423.609 496.597 423.76 500.998 428.372L521.708 450.049C526.109 454.661 525.958 461.987 521.346 466.389Z" fill="#E2E2E2"/>
<path d="M518.603 463.525C515.558 466.419 510.735 466.329 507.841 463.284L487.132 441.607C484.238 438.562 484.329 433.739 487.373 430.844C490.418 427.95 495.241 428.041 498.135 431.086L518.844 452.762C521.738 455.807 521.647 460.631 518.603 463.525Z" fill="#FDDD35"/>
<path d="M518.603 463.525C521.647 460.631 521.738 455.807 518.844 452.762L508.565 441.999L497.562 452.521L507.841 463.284C510.735 466.329 515.558 466.419 518.603 463.525Z" fill="#F64D11"/>
<path d="M487.132 441.607L497.562 452.521L503.018 447.305L487.343 430.875C484.359 433.799 484.238 438.593 487.132 441.607Z" fill="#FDDD35"/>
<path d="M507.841 463.284C510.735 466.298 515.528 466.419 518.573 463.555L503.048 447.305L497.592 452.521L507.841 463.284Z" fill="#F64D11"/>
<path fill-rule="evenodd" clip-rule="evenodd" d="M506.847 443.688L517.578 454.933C518.422 455.807 518.392 457.194 517.518 458.038C516.643 458.882 515.257 458.852 514.413 457.978L503.681 446.732L506.847 443.688Z" fill="#FFA686"/>
<path fill-rule="evenodd" clip-rule="evenodd" d="M502.445 439.075L506.846 443.657L503.681 446.672L499.28 442.09C498.436 441.215 498.466 439.829 499.34 438.984C500.215 438.17 501.631 438.201 502.445 439.075Z" fill="#FFEDBE"/>
<path fill-rule="evenodd" clip-rule="evenodd" d="M486.047 466.389C481.435 470.79 474.11 470.64 469.709 466.027L449 444.351C444.599 439.738 444.749 432.412 449.361 428.011C453.973 423.609 461.299 423.76 465.7 428.372L486.409 450.049C490.84 454.661 490.659 461.987 486.047 466.389Z" fill="#E2E2E2"/>
<path d="M483.334 463.525C480.289 466.419 475.466 466.329 472.572 463.284L451.863 441.607C448.969 438.562 449.06 433.739 452.104 430.844C455.149 427.95 459.972 428.041 462.866 431.086L483.575 452.762C486.469 455.807 486.348 460.631 483.334 463.525Z" fill="#FDDD35"/>
<path d="M483.334 463.525C486.379 460.631 486.469 455.807 483.575 452.762L473.296 441.999L462.293 452.521L472.572 463.284C475.466 466.329 480.289 466.419 483.334 463.525Z" fill="#F64D11"/>
<path d="M451.863 441.607L462.293 452.521L467.749 447.305L452.074 430.875C449.06 433.799 448.969 438.593 451.863 441.607Z" fill="#FDDD35"/>
<path d="M472.572 463.284C475.466 466.298 480.259 466.419 483.304 463.555L467.779 447.305L462.323 452.521L472.572 463.284Z" fill="#F64D11"/>
<path fill-rule="evenodd" clip-rule="evenodd" d="M471.547 443.688L482.279 454.933C483.123 455.807 483.093 457.194 482.219 458.038C481.344 458.882 479.958 458.852 479.114 457.978L468.382 446.732L471.547 443.688Z" fill="#FFA686"/>
<path fill-rule="evenodd" clip-rule="evenodd" d="M467.177 439.075L471.578 443.657L468.412 446.672L464.011 442.09C463.167 441.215 463.197 439.829 464.072 438.984C464.946 438.17 466.332 438.201 467.177 439.075Z" fill="#FFEDBE"/>
<path fill-rule="evenodd" clip-rule="evenodd" d="M627.183 529.066C622.57 533.468 615.245 533.317 610.844 528.705L590.135 507.028C585.734 502.416 585.885 495.09 590.497 490.688C595.109 486.287 602.434 486.437 606.835 491.05L627.544 512.726C631.975 517.339 631.795 524.665 627.183 529.066Z" fill="#E2E2E2"/>
<path d="M624.439 526.202C621.395 529.097 616.572 529.006 613.678 525.961L592.969 504.285C590.075 501.24 590.165 496.416 593.21 493.522C596.254 490.628 601.077 490.718 603.971 493.763L624.68 515.44C627.604 518.485 627.484 523.308 624.439 526.202Z" fill="#FDDD35"/>
<path d="M624.439 526.202C627.484 523.308 627.574 518.485 624.681 515.44L614.401 504.677L603.399 515.198L613.678 525.961C616.602 529.006 621.425 529.097 624.439 526.202Z" fill="#F64D11"/>
<path d="M592.999 504.285L603.429 515.198L608.885 509.983L593.21 493.552C590.196 496.477 590.105 501.27 592.999 504.285Z" fill="#FDDD35"/>
<path d="M613.678 525.961C616.572 528.976 621.365 529.097 624.409 526.233L608.885 509.983L603.429 515.198L613.678 525.961Z" fill="#F64D11"/>
<path fill-rule="evenodd" clip-rule="evenodd" d="M612.683 506.365L623.415 517.61C624.259 518.485 624.228 519.871 623.354 520.716C622.48 521.56 621.094 521.53 620.249 520.655L609.518 509.41L612.683 506.365Z" fill="#FFA686"/>
<path fill-rule="evenodd" clip-rule="evenodd" d="M608.312 501.752L612.713 506.335L609.548 509.35L605.147 504.767C604.303 503.893 604.333 502.506 605.207 501.662C606.082 500.848 607.468 500.878 608.312 501.752Z" fill="#FFEDBE"/>
<path fill-rule="evenodd" clip-rule="evenodd" d="M591.914 529.066C587.302 533.468 579.977 533.317 575.576 528.705L554.866 507.028C550.465 502.416 550.616 495.09 555.228 490.688C559.84 486.287 567.165 486.437 571.566 491.05L592.275 512.726C596.677 517.339 596.526 524.665 591.914 529.066Z" fill="#E2E2E2"/>
<path d="M589.171 526.202C586.126 529.097 581.303 529.006 578.409 525.961L557.7 504.285C554.806 501.24 554.896 496.416 557.941 493.522C560.986 490.628 565.809 490.718 568.703 493.763L589.412 515.44C592.306 518.485 592.215 523.308 589.171 526.202Z" fill="#FDDD35"/>
<path d="M589.171 526.202C592.215 523.308 592.306 518.485 589.412 515.44L579.133 504.677L568.13 515.198L578.409 525.961C581.303 529.006 586.126 529.097 589.171 526.202Z" fill="#F64D11"/>
<path d="M557.7 504.285L568.13 515.198L573.586 509.983L557.911 493.552C554.927 496.477 554.806 501.27 557.7 504.285Z" fill="#FDDD35"/>
<path d="M578.409 525.961C581.303 528.976 586.096 529.097 589.141 526.233L573.616 509.983L568.16 515.198L578.409 525.961Z" fill="#F64D11"/>
<path fill-rule="evenodd" clip-rule="evenodd" d="M577.414 506.365L588.146 517.61C588.99 518.485 588.959 519.871 588.085 520.716C587.211 521.56 585.824 521.53 584.98 520.655L574.249 509.41L577.414 506.365Z" fill="#FFA686"/>
<path fill-rule="evenodd" clip-rule="evenodd" d="M573.013 501.752L577.414 506.335L574.249 509.35L569.848 504.767C569.004 503.893 569.034 502.506 569.908 501.662C570.783 500.848 572.199 500.878 573.013 501.752Z" fill="#FFEDBE"/>
<path fill-rule="evenodd" clip-rule="evenodd" d="M556.615 529.066C552.003 533.468 544.678 533.317 540.276 528.705L519.567 507.028C515.166 502.416 515.317 495.09 519.929 490.688C524.541 486.287 531.866 486.437 536.267 491.05L556.976 512.726C561.408 517.339 561.227 524.665 556.615 529.066Z" fill="#E2E2E2"/>
<path d="M553.872 526.202C550.827 529.097 546.004 529.006 543.11 525.961L522.401 504.285C519.507 501.24 519.598 496.416 522.642 493.522C525.687 490.628 530.51 490.718 533.404 493.763L554.113 515.44C557.037 518.485 556.916 523.308 553.872 526.202Z" fill="#FDDD35"/>
<path d="M553.872 526.202C556.916 523.308 557.007 518.485 554.113 515.44L543.833 504.677L532.831 515.198L543.11 525.961C546.034 529.006 550.857 529.097 553.872 526.202Z" fill="#F64D11"/>
<path d="M522.431 504.285L532.861 515.198L538.317 509.983L522.642 493.552C519.628 496.477 519.537 501.27 522.431 504.285Z" fill="#FDDD35"/>
<path d="M543.14 525.961C546.034 528.976 550.827 529.097 553.872 526.233L538.347 509.983L532.891 515.198L543.14 525.961Z" fill="#F64D11"/>
<path fill-rule="evenodd" clip-rule="evenodd" d="M542.115 506.365L552.847 517.61C553.691 518.485 553.661 519.871 552.786 520.716C551.912 521.56 550.526 521.53 549.682 520.655L538.95 509.41L542.115 506.365Z" fill="#FFA686"/>
<path fill-rule="evenodd" clip-rule="evenodd" d="M537.744 501.752L542.145 506.335L538.98 509.35L534.579 504.767C533.735 503.893 533.765 502.506 534.64 501.662C535.514 500.848 536.9 500.878 537.744 501.752Z" fill="#FFEDBE"/>
<path fill-rule="evenodd" clip-rule="evenodd" d="M521.346 529.066C516.734 533.468 509.409 533.317 505.008 528.705L484.298 507.028C479.897 502.416 480.048 495.09 484.66 490.688C489.272 486.287 496.597 486.437 500.998 491.05L521.708 512.726C526.109 517.339 525.958 524.665 521.346 529.066Z" fill="#E2E2E2"/>
<path d="M518.603 526.202C515.558 529.097 510.735 529.006 507.841 525.961L487.132 504.285C484.238 501.24 484.329 496.416 487.373 493.522C490.418 490.628 495.241 490.718 498.135 493.763L518.844 515.44C521.738 518.485 521.647 523.308 518.603 526.202Z" fill="#FDDD35"/>
<path d="M518.603 526.202C521.647 523.308 521.738 518.485 518.844 515.44L508.565 504.677L497.562 515.198L507.841 525.961C510.735 529.006 515.558 529.097 518.603 526.202Z" fill="#F64D11"/>
<path d="M487.132 504.285L497.562 515.198L503.018 509.983L487.343 493.552C484.359 496.477 484.238 501.27 487.132 504.285Z" fill="#FDDD35"/>
<path d="M507.841 525.961C510.735 528.976 515.528 529.097 518.573 526.233L503.048 509.983L497.592 515.198L507.841 525.961Z" fill="#F64D11"/>
<path fill-rule="evenodd" clip-rule="evenodd" d="M506.847 506.365L517.578 517.61C518.422 518.485 518.392 519.871 517.518 520.716C516.643 521.56 515.257 521.53 514.413 520.655L503.681 509.41L506.847 506.365Z" fill="#FFA686"/>
<path fill-rule="evenodd" clip-rule="evenodd" d="M502.445 501.752L506.846 506.335L503.681 509.35L499.28 504.767C498.436 503.893 498.466 502.506 499.34 501.662C500.215 500.848 501.631 500.878 502.445 501.752Z" fill="#FFEDBE"/>
<path fill-rule="evenodd" clip-rule="evenodd" d="M486.047 529.066C481.435 533.468 474.11 533.317 469.709 528.705L449 507.028C444.599 502.416 444.749 495.09 449.361 490.688C453.973 486.287 461.299 486.437 465.7 491.05L486.409 512.726C490.84 517.339 490.659 524.665 486.047 529.066Z" fill="#E2E2E2"/>
<path d="M483.334 526.202C480.289 529.097 475.466 529.006 472.572 525.961L451.863 504.285C448.969 501.24 449.06 496.416 452.104 493.522C455.149 490.628 459.972 490.718 462.866 493.763L483.575 515.44C486.469 518.485 486.348 523.308 483.334 526.202Z" fill="#FDDD35"/>
<path d="M483.334 526.202C486.379 523.308 486.469 518.485 483.575 515.44L473.296 504.677L462.293 515.198L472.572 525.961C475.466 529.006 480.289 529.097 483.334 526.202Z" fill="#F64D11"/>
<path d="M451.863 504.285L462.293 515.198L467.749 509.983L452.074 493.552C449.06 496.477 448.969 501.27 451.863 504.285Z" fill="#FDDD35"/>
<path d="M472.572 525.961C475.466 528.976 480.259 529.097 483.304 526.233L467.779 509.983L462.323 515.198L472.572 525.961Z" fill="#F64D11"/>
<path fill-rule="evenodd" clip-rule="evenodd" d="M471.547 506.365L482.279 517.61C483.123 518.485 483.093 519.871 482.219 520.716C481.344 521.56 479.958 521.53 479.114 520.655L468.382 509.41L471.547 506.365Z" fill="#FFA686"/>
<path fill-rule="evenodd" clip-rule="evenodd" d="M467.177 501.752L471.578 506.335L468.412 509.35L464.011 504.767C463.167 503.893 463.197 502.506 464.072 501.662C464.946 500.848 466.332 500.878 467.177 501.752Z" fill="#FFEDBE"/>
<path fill-rule="evenodd" clip-rule="evenodd" d="M639.692 458.822V498.195C639.692 498.979 639.059 499.642 638.246 499.642C637.462 499.642 636.799 499.009 636.799 498.195V458.822C636.799 458.038 637.432 457.375 638.246 457.375C639.029 457.375 639.692 458.038 639.692 458.822Z" fill="#E2E2E2"/>
<path fill-rule="evenodd" clip-rule="evenodd" d="M431.606 458.822V498.195C431.606 498.979 430.973 499.642 430.159 499.642C429.376 499.642 428.712 499.009 428.712 498.195V458.822C428.712 458.038 429.345 457.375 430.159 457.375C430.943 457.375 431.606 458.038 431.606 458.822Z" fill="#BCAFF0"/>
<path fill-rule="evenodd" clip-rule="evenodd" d="M265.782 128.4H434.832C450.326 128.4 463.017 141.243 463.017 156.95V511.46C463.017 527.167 450.326 540.01 434.832 540.01H265.782C250.288 540.01 237.597 527.167 237.597 511.46V156.95C237.597 141.243 250.288 128.4 265.782 128.4Z" fill="#2910C4"/>
<path fill-rule="evenodd" clip-rule="evenodd" d="M282.181 128.4H451.23C466.725 128.4 479.415 141.243 479.415 156.95V511.46C479.415 527.167 466.725 540.01 451.23 540.01H282.181C266.687 540.01 253.996 527.167 253.996 511.46V156.95C253.996 141.243 266.687 128.4 282.181 128.4Z" fill="#403DDA"/>
<path fill-rule="evenodd" clip-rule="evenodd" d="M280.855 148.75C272.655 148.75 265.873 155.352 265.873 163.372V507.812C265.873 515.832 272.625 522.434 280.855 522.434H452.557C460.756 522.434 467.538 515.832 467.538 507.812V163.342C467.538 155.322 460.786 148.72 452.557 148.72H441.132H426.241H307.171H304.608H280.855V148.75Z" fill="#9599FF"/>
<path fill-rule="evenodd" clip-rule="evenodd" d="M280.855 148.75C272.655 148.75 265.873 155.352 265.873 163.372V175.099H467.508V163.372C467.508 155.352 460.756 148.75 452.526 148.75H441.102H426.21H307.171H304.608H280.855Z" fill="white"/>
<path fill-rule="evenodd" clip-rule="evenodd" d="M383.647 136.239H342.65C341.475 136.239 340.51 137.203 340.51 138.379C340.51 139.555 341.475 140.52 342.65 140.52H383.647C384.822 140.52 385.787 139.555 385.787 138.379C385.787 137.234 384.822 136.239 383.647 136.239Z" fill="#302E91"/>
<path fill-rule="evenodd" clip-rule="evenodd" d="M451.351 155.835C454.938 155.835 457.862 158.759 457.862 162.347C457.862 165.934 454.938 168.859 451.351 168.859C447.764 168.859 444.84 165.934 444.84 162.347C444.84 158.729 447.733 155.835 451.351 155.835Z" fill="#A0B9F8"/>
<path d="M245.465 532.503C245.465 537.749 241.215 542 236 542H198.651C193.406 542 189.186 537.749 189.186 532.503C189.186 527.258 193.436 523.037 198.651 523.037H236C241.215 523.037 245.465 527.258 245.465 532.503Z" fill="#FDDD35"/>
<path d="M245.465 532.503C245.465 527.258 241.215 523.037 236 523.037H217.461V542H236C241.215 542 245.465 537.749 245.465 532.503Z" fill="#F64D11"/>
<path d="M198.651 542H217.461V532.594H189.186C189.216 537.779 193.436 542 198.651 542Z" fill="#FDDD35"/>
<path d="M235.97 542C241.185 542 245.405 537.779 245.435 532.594H217.431V542H235.97Z" fill="#F64D11"/>
<path fill-rule="evenodd" clip-rule="evenodd" d="M217.461 526.022H236.844C238.351 526.022 239.587 527.258 239.587 528.765C239.587 530.272 238.351 531.509 236.844 531.509H217.461V526.022Z" fill="#FFA686"/>
<path fill-rule="evenodd" clip-rule="evenodd" d="M209.533 526.022H217.431V531.478H209.533C208.026 531.478 206.79 530.242 206.79 528.735C206.82 527.258 208.056 526.022 209.533 526.022Z" fill="#FFFBD4"/>
<path d="M266.204 539.046C262.557 542.814 256.558 542.904 252.79 539.257L225.962 513.269C222.194 509.621 222.103 503.622 225.751 499.853C229.398 496.085 235.397 495.994 239.165 499.642L265.993 525.63C269.731 529.308 269.822 535.307 266.204 539.046Z" fill="#FDDD35"/>
<path d="M266.204 539.045C269.852 535.277 269.761 529.278 265.993 525.63L252.7 512.726L239.497 526.353L252.79 539.257C256.558 542.904 262.557 542.814 266.204 539.045Z" fill="#F64D11"/>
<path d="M225.962 513.269L239.466 526.353L246.008 519.6L225.691 499.913C222.133 503.682 222.224 509.651 225.962 513.269Z" fill="#FDDD35"/>
<path d="M252.79 539.257C256.528 542.874 262.497 542.814 266.144 539.106L246.038 519.63L239.497 526.383L252.79 539.257Z" fill="#F64D11"/>
<path fill-rule="evenodd" clip-rule="evenodd" d="M250.59 514.897L264.516 528.373C265.602 529.428 265.632 531.147 264.577 532.232C263.522 533.317 261.803 533.348 260.718 532.292L246.792 518.816L250.59 514.897Z" fill="#FFA686"/>
<path fill-rule="evenodd" clip-rule="evenodd" d="M244.923 509.41L250.59 514.927L246.791 518.846L241.124 513.329C240.039 512.274 240.009 510.556 241.064 509.47C242.089 508.385 243.837 508.355 244.923 509.41Z" fill="#FFFBD4"/>
<path fill-rule="evenodd" clip-rule="evenodd" d="M221.319 424.302C217.34 424.302 214.115 427.377 214.115 431.116V487.191C214.115 490.929 217.371 494.004 221.319 494.004C225.268 494.004 228.524 490.929 228.524 487.191V431.116C228.524 427.347 225.268 424.302 221.319 424.302Z" fill="#9997FF"/>
<path fill-rule="evenodd" clip-rule="evenodd" d="M214.085 438.14V486.769C214.085 490.748 217.341 493.974 221.289 493.974C225.238 493.974 228.494 490.718 228.494 486.769V438.14H214.085Z" fill="white"/>
<path fill-rule="evenodd" clip-rule="evenodd" d="M387.777 380.196C400.045 404.465 408.576 442.361 440.77 445.768C451.321 447.275 465.941 439.195 479.506 429.91C490.569 422.343 501.059 414.866 506.726 404.314C516.402 386.316 505.55 378.628 499.763 375.523C494.397 372.659 488.73 377.694 483.424 381.522C472.783 389.18 459.58 399.069 455.209 397.802C449.904 396.295 437.153 339.255 421.659 324.724C418.192 321.799 382.501 369.765 387.777 380.196Z" fill="white"/>
<path fill-rule="evenodd" clip-rule="evenodd" d="M394.046 312.393L333.456 315.106C318.806 315.77 298.007 324.06 289.596 334.853C278.413 349.234 297.102 444.562 295.595 522.404H438.72C441.102 447.637 437.334 376.307 425.155 328.733C420.784 321.649 405.833 311.85 394.046 312.393Z" fill="white"/>
<path fill-rule="evenodd" clip-rule="evenodd" d="M315.852 378.96C315.852 378.96 308.768 396.928 303.674 407.6C298.579 418.273 298.097 422.524 301.322 425.87C304.548 429.216 324.112 440.914 329.96 449.355C335.808 457.797 331.768 461.535 331.768 461.535L262.949 449.235L283.085 388.607L315.852 378.96Z" fill="#DDF0FB"/>
<path fill-rule="evenodd" clip-rule="evenodd" d="M394.046 312.393L384.008 312.845L383.375 327.738L380.964 464.67L410.234 355.052L398.357 344.199L406.496 335.275L396.94 312.393C396.006 312.333 395.041 312.333 394.046 312.393Z" fill="#DDF0FB"/>
<path fill-rule="evenodd" clip-rule="evenodd" d="M324.805 367.624C330.231 354.872 328 333.105 315.038 328.191C311.602 326.894 304.156 323.94 298.097 327.678C282.362 337.476 248.118 392.557 246.942 431.719C246.098 460.058 305.935 482.94 328 477.725C331.497 473.715 336.712 459.123 329.99 451.888C317.992 438.954 292.581 435.035 293.847 425.237C296.077 407.57 320.344 378.055 324.805 367.624Z" fill="white"/>
<path fill-rule="evenodd" clip-rule="evenodd" d="M344.881 314.594L348.679 327.859L380.964 464.64L328.332 360.298L337.586 347.124L327.699 340.19L332.341 315.167C335.114 314.473 341.957 314.715 344.881 314.594Z" fill="#DDF0FB"/>
<path d="M393.413 312.152H342.168V464.67H393.413V312.152Z" fill="url(#paint4_linear_11_538)"/>
<path fill-rule="evenodd" clip-rule="evenodd" d="M385.335 406.003C383.406 429.126 381.356 450.561 380.572 463.465L379.999 461.806L377.738 455.114C374.603 444.562 369.328 425.177 363.751 403.922L366.977 351.706L362.606 343.536L369.69 334.612L377.497 343.023L373.729 351.254L385.335 406.003Z" fill="#0480D8"/>
<path d="M341.987 354.359C341.686 352.972 340.389 345.526 340.631 337.024C340.781 331.326 341.625 325.146 343.946 320.141C346.147 315.317 349.734 311.549 355.462 310.343C356.999 310.011 358.657 309.861 360.496 309.921C397.543 310.946 407.37 351.827 414.725 382.427L415.358 385.05L418.343 384.326L417.71 381.703C410.113 350.108 399.985 307.901 360.586 306.846C358.476 306.786 356.577 306.967 354.798 307.328C347.986 308.806 343.735 313.237 341.143 318.875C338.641 324.332 337.737 330.904 337.556 336.964C337.315 345.797 338.671 353.575 338.973 355.022L341.987 354.359Z" fill="#000F94"/>
<path fill-rule="evenodd" clip-rule="evenodd" d="M378.733 307.087L379.035 313.539L379.638 314.323C383.948 324.151 373.398 331.055 369.961 334.672C366.555 332.291 348.8 328.311 347.775 314.473L348.498 314.443L347.413 290.144C346.599 289.933 345.755 289.631 344.941 289.179C342.439 287.823 341.354 284.235 341.837 280.497C342.319 276.728 347.594 279.019 347.594 279.019C342.62 268.166 336.441 258.881 347.715 252.218C359.019 245.555 382.381 244.982 382.381 244.982L396.307 242.902C393.413 248.027 400.467 264.729 401.372 276.035C402.457 289.812 389.344 307.509 378.733 307.087Z" fill="#F7AAAC"/>
<path fill-rule="evenodd" clip-rule="evenodd" d="M357.572 297.199C363.088 310.162 367.972 314.835 379.125 315.86L378.733 306.876C374.483 306.665 363.932 303.53 357.572 297.199Z" fill="#E16E73"/>
<path fill-rule="evenodd" clip-rule="evenodd" d="M394.348 250.499C382.682 258.85 364.083 251.464 355.823 259.936C351.754 264.126 351.995 269.282 355.552 279.472C356.245 281.431 356.637 281.974 355.823 282.155C355.401 282.245 354.979 283.029 353.352 282.125C351.151 280.919 347.534 279.2 346.177 280.135C343.193 282.245 344.278 287.129 346.449 288.848C347.413 289.601 349.252 290.777 349.252 290.777C349.252 290.777 343.404 292.586 337.767 288.426C321.248 276.276 320.705 262.408 321.58 252.791C323.026 236.752 339.696 227.496 359.983 216.01C366.615 212.272 362.877 205.609 369.419 204.795C398.267 201.057 417.68 234.732 394.348 250.499Z" fill="#2A4589"/>
<path fill-rule="evenodd" clip-rule="evenodd" d="M504.798 371.513C505.281 368.498 507.391 356.62 509.38 354.539C510.405 353.484 510.676 353.936 511.189 354.539C511.641 355.082 512.033 356.589 511.973 357.645C511.822 359.845 511.731 361.835 511.46 363.041C517.64 359.273 523.367 350.831 527.738 345.043C529.517 342.691 533.526 344.5 531.868 348.63C531.446 349.746 523.94 359.815 523.94 361.021C523.819 366.81 542.117 375.432 508.777 391.199C506.969 389.873 501.904 384.446 501 377.874L504.798 371.513Z" fill="#F7AAAC"/>
<path fill-rule="evenodd" clip-rule="evenodd" d="M339.274 461.324L344.007 462.349L358.536 458.279C360.104 457.375 370.624 453.787 368.122 457.616C366.374 460.299 360.586 465.032 360.767 465.304C363.118 468.71 383.677 472.117 383.918 472.449C387.143 476.73 371.86 474.529 369.599 474.378C368.996 474.348 380.572 478.177 380.18 478.599C379.728 479.111 378.582 480.498 376.111 480.287C373.066 480.016 365.861 477.936 365.289 478.418C364.716 478.93 376.02 482.608 375.447 483.031C374.995 483.362 374.121 484.086 372.222 483.875C369.087 483.513 362.154 481.523 361.43 481.885C361.069 482.066 364.837 483.121 366.344 483.603C372.312 485.593 365.62 485.955 363.209 485.623C351.573 484.116 351.121 478.961 337.345 477.212C324.443 476.127 336.622 460.751 339.274 461.324Z" fill="#F7AAAC"/>
<path d="M361.973 407.661C352.266 410.736 345.152 410.706 339.756 407.118C334.391 403.561 330.864 396.566 328.211 385.623L330.472 385.08C332.974 395.451 336.23 401.993 341.053 405.189C345.815 408.354 352.296 408.294 361.31 405.43L361.973 407.661Z" fill="#D0D2D3"/>
<path d="M342.711 412.273C352.749 410.585 359.079 407.359 362.274 401.691C365.44 396.084 365.409 388.245 362.817 377.272L360.556 377.814C363.028 388.185 363.118 395.511 360.255 400.546C357.451 405.52 351.633 408.414 342.319 409.982L342.711 412.273Z" fill="#E5E6E7"/>
<path d="M340.661 353.093C352.929 351.676 359.983 363.584 363.058 374.106C363.57 375.824 363.902 376.88 363.691 377.724C363.088 380.256 359.953 379.563 359.622 377.995C357.692 368.499 350.88 354.299 339.123 357.193C339.063 357.223 339.033 357.223 338.973 357.223C338.701 357.283 335.657 358.007 333.155 361.353C330.623 364.79 328.271 371.634 331.437 384.778C331.648 385.653 331.135 386.557 330.231 386.949L330.201 386.979L330.14 387.009L330.08 387.04L330.05 387.07C329.99 387.1 329.96 387.1 329.899 387.13H329.869C328.724 387.401 327.578 386.798 327.337 385.803C324.534 374.106 325.378 365.152 329.839 359.243C332.552 355.565 336.26 353.605 340.661 353.093Z" fill="#000F94"/>
<path d="M337.888 411.912C337.707 410.917 338.37 409.952 339.365 409.771L342.831 409.439C343.947 409.5 344.007 410.073 344.158 410.766C344.308 411.52 344.399 412.092 343.314 412.545L340.028 413.389C339.033 413.57 338.069 412.906 337.888 411.912Z" fill="#000F94"/>
<path d="M366.103 405.128C365.801 404.164 364.776 403.591 363.812 403.892L360.586 405.158C359.622 405.731 359.833 406.244 360.013 406.937C360.224 407.691 360.405 408.233 361.581 408.143L364.867 407.389C365.831 407.148 366.404 406.123 366.103 405.128Z" fill="#000F94"/>
<path d="M424.01 387.19C424.764 391.109 422.653 394.818 419.307 395.451C415.961 396.084 412.646 393.431 411.892 389.481C411.138 385.562 413.248 381.854 416.594 381.221C419.94 380.588 423.286 383.271 424.01 387.19Z" fill="#000F94"/>
<path d="M423.799 387.281C424.311 390.024 422.834 392.617 420.513 393.069C418.162 393.521 415.841 391.652 415.328 388.909C414.816 386.165 416.293 383.573 418.614 383.12C420.935 382.668 423.256 384.537 423.799 387.281Z" fill="#A6A8AB"/>
<path d="M423.437 387.251C423.799 389.09 422.804 390.838 421.237 391.14C419.669 391.441 418.102 390.175 417.74 388.336C417.378 386.497 418.373 384.748 419.97 384.447C421.538 384.145 423.075 385.412 423.437 387.251Z" fill="white"/>
</g>
<defs>
<linearGradient id="paint0_linear_11_538" x1="681.112" y1="515.37" x2="681.118" y2="338.266" gradientUnits="userSpaceOnUse">
<stop stop-color="#2202A0"/>
<stop offset="0.6782" stop-color="#1938DD"/>
<stop offset="1" stop-color="#2824FB"/>
</linearGradient>
<linearGradient id="paint1_linear_11_538" x1="695.255" y1="515.37" x2="695.264" y2="377.938" gradientUnits="userSpaceOnUse">
<stop stop-color="#2B02A0"/>
<stop offset="0.6782" stop-color="#192DDD"/>
<stop offset="1" stop-color="#243AFB"/>
</linearGradient>
<linearGradient id="paint2_linear_11_538" x1="681.35" y1="338.27" x2="681.347" y2="304.112" gradientUnits="userSpaceOnUse">
<stop stop-color="#EA8C00"/>
<stop offset="1" stop-color="#FFC045"/>
<stop offset="1" stop-color="#FBFF45"/>
</linearGradient>
<linearGradient id="paint3_linear_11_538" x1="681.553" y1="485.762" x2="681.553" y2="413.518" gradientUnits="userSpaceOnUse">
<stop stop-color="#3D1EF8"/>
<stop offset="1" stop-color="#B9C4FF"/>
</linearGradient>
<linearGradient id="paint4_linear_11_538" x1="372.421" y1="449.655" x2="354.309" y2="209.379" gradientUnits="userSpaceOnUse">
<stop stop-color="#1E9DF8"/>
<stop offset="1" stop-color="#B9E4FF"/>
</linearGradient>
<clipPath id="clip0_11_538">
<rect width="823" height="542" fill="white"/>
</clipPath>
</defs>
</svg>
