<svg width="720" height="136" viewBox="0 0 720 136" fill="none" xmlns="http://www.w3.org/2000/svg">
<path d="M192.696 13.9877L217.325 93.9245H218.27L242.95 13.9877H266.833L231.705 119.2H203.941L168.763 13.9877H192.696Z" fill="#6D76F3"/>
<path d="M300.642 13.9877V119.2H279.097V13.9877H300.642Z" fill="#6D76F3"/>
<path d="M314.487 32.328V13.9877H398.177V32.328H366.979V119.2H345.684V32.328H314.487Z" fill="#6D76F3"/>
<path d="M417.072 119.2H393.985L429.162 13.9877H456.926L492.054 119.2H468.967L461.423 95.2089L456.205 78.6153L455.962 77.8447L443.442 38.0304H442.646L430.102 77.8447L424.631 95.2089L417.072 119.2ZM430.102 77.8447H455.962L456.205 78.6153L461.423 95.2089H424.631L430.102 77.8447Z" fill="#6D76F3"/>
<path d="M504.319 119.2V13.9877H525.864V60.3778H527.207L563.877 13.9877H589.701L551.886 61.097L590.149 119.2H564.375L536.462 75.9439L525.864 89.3009V119.2H504.319Z" fill="#6D76F3"/>
<path d="M622.465 13.9877V119.2H600.921V13.9877H622.465Z" fill="#6D76F3"/>
<path d="M636.31 32.328V13.9877H720V32.328H688.803V119.2H667.507V32.328H636.31Z" fill="#6D76F3"/>
<path d="M29.2135 0C13.0793 0 0 13.0477 0 29.1429V72.5415H18.5892C24.5619 72.5415 30.3204 70.3217 34.7411 66.3151L77.7204 27.3624L77.8467 27.2173C85.0847 18.8968 97.6037 18.0873 105.829 25.3917C110.148 29.2271 112.024 33.1158 112.175 36.8222C112.326 40.5316 110.774 44.6709 106.992 49.0573L86.2701 68.9511C83.4586 71.6502 78.9959 71.5984 76.2482 68.8348L68.2878 60.8283C63.1993 55.7104 54.9917 55.4421 49.5783 60.2167L26.7631 80.3396L26.6224 80.5013C22.0047 85.8096 19.3669 92.0114 19.3654 98.2639C19.3639 104.578 22.0562 110.619 27.4906 115.445C38.3704 125.107 54.923 124.076 64.5472 113.193L105.606 76.9345C108.811 74.1041 112.944 72.5415 117.224 72.5415H129.838V106.857C129.838 119.376 119.665 129.524 107.116 129.524H29.2135C16.6647 129.524 6.4919 119.376 6.4919 106.857V82.6237H0V106.857C0 122.952 13.0793 136 29.2135 136H107.116C123.251 136 136.33 122.952 136.33 106.857V66.0654H117.224C111.358 66.0654 105.695 68.2066 101.303 72.0853L59.9293 108.622L59.7893 108.783C52.5513 117.103 40.0323 117.913 31.8071 110.608C27.6616 106.927 25.8563 102.607 25.8573 98.2655C25.8583 93.9161 27.6785 89.2312 31.389 84.904L53.8783 65.0685C56.714 62.5675 61.0131 62.7081 63.6785 65.3889L71.639 73.3954C76.8847 78.6714 85.4044 78.7703 90.7717 73.6174L111.706 53.5195L111.802 53.4096C116.371 48.1565 118.901 42.4299 118.662 36.5593C118.421 30.6553 115.407 25.2267 110.145 20.5545C99.2602 10.8879 82.6966 11.9247 73.0744 22.8234L30.3757 61.5217C27.1498 64.4455 22.9477 66.0654 18.5892 66.0654H6.4919V29.1429C6.4919 16.6244 16.6647 6.47619 29.2135 6.47619H107.116C119.665 6.47619 129.838 16.6244 129.838 29.1429V56.1618H136.33V29.1429C136.33 13.0477 123.25 0 107.116 0H29.2135Z" fill="#6D76F3"/>
</svg>
